<svg xmlns="http://www.w3.org/2000/svg" width="15" height="15" viewBox="0 0 15 15">
  <g id="Icon_ionic-ios-checkbox-outline" data-name="Icon ionic-ios-checkbox-outline" transform="translate(-4.5 -4.5)">
    <path id="Tracé_21458" data-name="Tracé 21458" d="M18.25,4.5H5.75A1.249,1.249,0,0,0,4.5,5.75v12.5A1.249,1.249,0,0,0,5.75,19.5h12.5a1.249,1.249,0,0,0,1.25-1.25V5.75A1.249,1.249,0,0,0,18.25,4.5Zm.156,13.594a.313.313,0,0,1-.312.313H5.906a.313.313,0,0,1-.312-.312V5.906a.313.313,0,0,1,.313-.312H18.094a.313.313,0,0,1,.313.313Z" fill="#00B5EC"/>
    <path id="Tracé_21459" data-name="Tracé 21459" d="M18.872,12.96l-.687-.707a.148.148,0,0,0-.109-.047h0a.142.142,0,0,0-.109.047l-4.766,4.8L11.466,15.32a.151.151,0,0,0-.219,0l-.7.7a.156.156,0,0,0,0,.223l2.188,2.188a.692.692,0,0,0,.457.223.725.725,0,0,0,.453-.215h0l5.223-5.25A.167.167,0,0,0,18.872,12.96Z" transform="translate(-2.669 -3.425)" fill="#00B5EC"/>
  </g>
</svg>
