<svg xmlns="http://www.w3.org/2000/svg" viewBox="0 0 196.12 119.4"><defs><style>.cls-1{fill:none;stroke:#000;stroke-width:0.7px;}</style></defs><g id="Calque_2" data-name="Calque 2"><g id="Layer_1" data-name="Layer 1"><path d="M154.67,60.86h7.21V84.12c0,1.48.46,2.76,2.53,2.76,1.9,0,2.48-1.65,2.48-3V60.86h7.21V83.18c0,5.21-2.33,9.23-9.73,9.23-6.13,0-9.7-2.91-9.7-9.23V60.86"/><path d="M184.07,81.37v2.19c0,1.77.58,3.33,2.9,3.33,1.69,0,2.43-1.52,2.43-3.09,0-2.59-2.14-3.58-4-4.73a20.94,20.94,0,0,1-5.49-4,9,9,0,0,1-2.11-6.18c0-5.81,3.51-8.78,9.12-8.78,6.31,0,9.53,4.21,9.2,10H189.4c-.08-1.81,0-4.28-2.39-4.45a2.15,2.15,0,0,0-2.52,2.06c-.2,1.85.75,2.8,2.19,3.79,2.72,1.73,5.07,2.8,6.76,4.36s2.68,3.62,2.68,7.37c0,5.93-3.3,9.23-9.32,9.23-6.65,0-9.46-3.71-9.46-7.79v-3.3h6.73"/><path d="M87.23,119.4a59.7,59.7,0,1,1,59.7-59.7,59.7,59.7,0,0,1-59.7,59.7m0-11.09A48.62,48.62,0,1,0,38.61,59.7a48.61,48.61,0,0,0,48.62,48.61"/><path d="M58.11,27.68h11V63.15c0,2.26.69,4.2,3.82,4.2,2.89,0,3.77-2.5,3.77-4.51V27.68h11v34c0,8-3.57,14.11-14.84,14.11-9.33,0-14.77-4.45-14.77-14.11v-34"/><polyline points="92.05 91.73 92.05 44.68 103.06 44.68 103.06 82.3 116.54 82.3 116.54 91.73 92.05 91.73"/><path d="M71.53,82.23h1.14c.55,0,1.54,0,1.56,1.29a1.25,1.25,0,0,1-1.42,1.34H71.53V82.23m0,3.37H73c1,0,1.25.62,1.25,1.35a6.47,6.47,0,0,0,.25,1.86h1v-.16c-.2,0-.26-.32-.29-.46C75,87.64,75,87.11,75,86.56c-.12-1-.35-1.28-1.3-1.36v0a1.56,1.56,0,0,0,1.4-1.59c0-1.69-.92-2.09-2.45-2.09H70.72v7.31h.81V85.6"/><path class="cls-1" d="M72.93,91.49a6.34,6.34,0,1,0-6.33-6.33A6.33,6.33,0,0,0,72.93,91.49Z"/><path d="M12.3,71.67v-2c0-2.62-.94-4-2.28-4-2.26,0-2.8,1.19-2.8,3.2l0,15.23c0,1.72.7,2.75,2.59,2.75,2.47,0,2.67-2.55,2.67-4.44V79.67h7.22v3.78c0,5.3-3,9-10.43,9C2.59,92.46,0,88.92,0,82.63V70c0-6.7,3.08-9.83,9.68-9.83,6.15,0,9.84,2.64,9.84,8.93v2.58H12.3"/></g></g></svg>