<?xml version="1.0" encoding="utf-8"?>
<!-- Generator: Adobe Illustrator 19.2.1, SVG Export Plug-In . SVG Version: 6.00 Build 0)  -->
<svg version="1.1" id="layer" xmlns="http://www.w3.org/2000/svg" xmlns:xlink="http://www.w3.org/1999/xlink" x="0px" y="0px"
	 viewBox="0 0 652 652" style="enable-background:new 0 0 652 652;" xml:space="preserve">
<style type="text/css">
	.st0{fill:#E22124;}
	.st1{fill-rule:evenodd;clip-rule:evenodd;}
	.st2{fill:#5DB9E8;}
</style>
<g>
	<path class="st0" d="M129.5,376.4L129.5,376.4c-3.6,2.8-8.8,5-14.1,5.2c-5.5,0-14.6-3.4-19.5-9.8c-8.8-11.6-1.8-23.3,6.1-32.9
		c4.1-5,8.7-10.5,10.7-16.9c1.8-6.2-0.5-13-4.6-15.5c7.1,1.2,14.1,6.1,15.9,13.7c1.8,7.8-2.9,12.8-3.9,19.9
		c-0.5,3.7-0.7,6.8,2.3,11.2c-5.4-8.2-0.7-16.9,7.1-19.9c2-0.9,3.9-1.1,6.1-1.4c-4.3,1.6-7.5,5.5-5.9,11c1.2,4.5,4.1,7.8,6.1,11.9
		C140,361.5,138.2,369.8,129.5,376.4z M123.9,355.2L123.9,355.2c0.7,2-0.5,6.9-3.7,8.4c1.4-2.7-1.1-7.5-2.9-9.6
		c-1.2-1.6-2.9-3-3.9-4.8c-1.1-1.8-1.4-3.9-1.1-6.1c0.2-1.4,0.9-3.7,2.7-6.2c-4.3,2.5-9.1,7.5-10.4,12.3c-0.7,2.3-0.7,4.8,0.4,7.3
		c1.1,3,4.3,5.3,6.4,7.7c2.3,2.7,1.8,5.7,0,7.8c-2.5,0.2-5.7-2-6.8-5.3c0.2,8.7,7.9,12.1,11.1,12.1h0.7c9.1-1.8,12.9-10.9,10.5-18.3
		C126.5,358.4,125.4,356.7,123.9,355.2z"/>
</g>
<g>
	<polygon class="st1" points="158.2,421.7 158.2,421.7 20,421.7 20,418.8 158.2,418.8 	"/>
</g>
<g>
	<polygon class="st1" points="49.5,418.8 49.5,418.8 26.1,418.8 26.1,361.8 49.5,361.8 	"/>
</g>
<g>
	<polygon class="st1" points="97.3,418.8 97.3,418.8 53.6,418.8 53.6,386.8 97.3,386.8 	"/>
</g>
<g>
	<polygon class="st1" points="128.8,405.6 128.8,405.6 115.2,396.6 101.5,405.6 105.2,405.6 105.2,418.8 124.3,418.8 124.3,405.6 	
		"/>
</g>
<g>
	<polygon class="st1" points="149,399.8 149,399.8 144.7,395.8 142.5,377.9 139.8,395.8 136.3,399.8 132.9,399.8 132.9,418.8 
		151.8,418.8 151.8,399.8 	"/>
</g>
<g>
	<polygon points="287.2,255.9 287.2,255.9 287.2,368.2 245.9,368.2 210.6,310.5 210.6,368.2 170.7,368.2 170.7,255.9 214.1,255.9 
		247.3,313.2 247.3,255.9 	"/>
</g>
<g>
	<polygon points="342,287 342,287 342,300.9 381.6,300.9 381.6,334.1 342,334.1 342,367.5 298.9,367.5 298.9,255.2 387.4,255.2 
		387.4,287 	"/>
</g>
<g>
	<path d="M490.5,330.5L490.5,330.5c0,27.6-19.4,39.9-49.1,39.9c-20.2,0-34.3-3.4-46.9-8.4l7-30.4c10.7,5.2,21.1,9.1,37.1,9.1
		c7.1,0,9.3-1.8,9.3-4.1c0-8.4-53.4-1.6-53-44.2c0.2-25.1,19.4-38.6,48-38.6c15.9,0,30.7,2.8,43.2,6.4l-6.8,30.3
		c-7.3-3.4-20.2-6.6-33.4-6.6c-5.7,0-9.3,0.7-9.3,4.1C436.6,296.1,490.5,290.8,490.5,330.5z"/>
</g>
<g>
	<path d="M619.7,368.2L619.7,368.2h-43.6l-5.2-18.7h-33.4l-5,18.7h-43.8l39.5-112.4H580L619.7,368.2z M544.7,323.2L544.7,323.2h19.1
		l-9.5-34.5L544.7,323.2z"/>
</g>
<g>
	<polygon points="185,379.1 185,379.1 185,393 180,393 175.7,385.9 175.7,393 170.7,393 170.7,379.1 176.1,379.1 180.2,386.2 
		180.2,379.1 	"/>
</g>
<g>
	<path d="M202.2,393L202.2,393h-5.4l-0.5-2.3h-4.1l-0.7,2.3h-5.4l4.8-13.9h6.4L202.2,393z M193.1,387.5L193.1,387.5h2.3l-1.2-4.3
		L193.1,387.5z"/>
</g>
<g>
	<polygon points="210.4,393 210.4,393 205,393 205,383 201.1,383 201.1,379.1 214.3,379.1 214.3,383 210.4,383 	"/>
</g>
<g>
	<polygon points="220.9,393 220.9,393 215.6,393 215.6,379.1 220.9,379.1 	"/>
</g>
<g>
	<path d="M238.4,386L238.4,386c0,4.5-3.2,7.1-7.9,7.1c-4.6,0-7.9-2.7-7.9-7.1c0-4.5,3.2-7.1,7.9-7.1
		C235.2,378.9,238.4,381.6,238.4,386z M232.9,386L232.9,386c0-2.1-0.7-3.2-2.3-3.2c-1.6,0-2.5,1.1-2.5,3.2c0,2,0.9,3.2,2.5,3.2
		C232.2,389.3,232.9,388,232.9,386z"/>
</g>
<g>
	<polygon points="254.5,379.1 254.5,379.1 254.5,393 249.5,393 245,385.9 245,393 240.2,393 240.2,379.1 245.6,379.1 249.7,386.2 
		249.7,379.1 	"/>
</g>
<g>
	<path d="M271.6,393L271.6,393h-5.4l-0.7-2.3h-4.1l-0.5,2.3h-5.3l4.8-13.9h6.4L271.6,393z M262.3,387.5L262.3,387.5h2.3l-1.1-4.3
		L262.3,387.5z"/>
</g>
<g>
	<polygon points="277.9,389.1 277.9,389.1 283.2,389.1 283.2,393 272.5,393 272.5,379.1 277.9,379.1 	"/>
</g>
<g>
	<polygon points="294.8,383 294.8,383 294.8,384.8 299.7,384.8 299.7,388.7 294.8,388.7 294.8,393 289.5,393 289.5,379.1 
		300.4,379.1 300.4,383 	"/>
</g>
<g>
	<polygon points="307.5,393 307.5,393 302.2,393 302.2,379.1 307.5,379.1 	"/>
</g>
<g>
	<path d="M323.6,393L323.6,393h-5.2c-0.9-4.5-1.6-4.5-3.2-4.5v4.5H310v-13.7c1.3-0.2,3.6-0.4,5.4-0.4c3.9,0,7.9,0.9,7.9,4.8
		c0,2.1-1.4,3-2.5,3.6C322,387.5,323.1,388.7,323.6,393z M318.1,383.9L318.1,383.9c0-1.1-1.3-1.4-2.1-1.4c-0.4,0-0.5,0.2-0.7,0.2
		v2.7c0.2,0,0.4,0,0.5,0C316.6,385.3,318.1,385.2,318.1,383.9z"/>
</g>
<g>
	<polygon points="330.7,383 330.7,383 330.7,384.3 336.1,384.3 336.1,387.8 330.7,387.8 330.7,389.1 336.8,389.1 336.8,393 
		325.4,393 325.4,379.1 336.8,379.1 336.8,383 	"/>
</g>
<g>
	<path d="M355.2,388.4L355.2,388.4c0,3.4-2.5,4.8-6.1,4.8c-2.5,0-4.3-0.4-5.7-1.1l0.7-3.7c1.4,0.7,2.7,1.2,4.6,1.2
		c0.9,0,1.1-0.4,1.1-0.5c0-1.1-6.4-0.2-6.4-5.5c0-3,2.3-4.6,5.9-4.6c2,0,3.7,0.4,5.4,0.7l-0.9,3.7c-0.9-0.4-2.5-0.9-4.1-0.9
		c-0.7,0-1.1,0.2-1.1,0.5C348.6,384.1,355.2,383.4,355.2,388.4z"/>
</g>
<g>
	<path d="M370,384.3L370,384.3c0,4.1-4.1,5.3-7.7,5.2v3.6H357v-13.9c0.9,0,2.7-0.2,5-0.2C365.5,378.9,370,380,370,384.3z
		 M362.2,385.7L362.2,385.7c0.9,0,2.7,0,2.7-1.4c0-1.4-1.8-1.6-2.7-1.6V385.7z"/>
</g>
<g>
	<path d="M385,393L385,393h-5.2c-0.9-4.5-1.6-4.5-3.2-4.5v4.5h-5.2v-13.7c1.2-0.2,3.6-0.4,5.4-0.4c4.1,0,7.9,0.9,7.9,4.8
		c0,2.1-1.3,3-2.5,3.6C383.4,387.5,384.5,388.7,385,393z M379.5,383.9L379.5,383.9c0-1.1-1.2-1.4-2.1-1.4c-0.4,0-0.5,0.2-0.7,0.2
		v2.7c0.2,0,0.4,0,0.5,0C378,385.3,379.5,385.2,379.5,383.9z"/>
</g>
<g>
	<polygon points="392.2,393 392.2,393 386.8,393 386.8,379.1 392.2,379.1 	"/>
</g>
<g>
	<polygon points="409.1,379.1 409.1,379.1 409.1,393 403.9,393 399.7,385.9 399.7,393 394.7,393 394.7,379.1 400,379.1 404.1,386.2 
		404.1,379.1 	"/>
</g>
<g>
	<polygon points="426.1,393 426.1,393 419.8,393 417,387.3 417,393 411.6,393 411.6,379.1 417,379.1 417,384.1 419.8,379.1 
		425.7,379.1 421.4,385.3 	"/>
</g>
<g>
	<polygon points="432.3,389.1 432.3,389.1 437.7,389.1 437.7,393 427,393 427,379.1 432.3,379.1 	"/>
</g>
<g>
	<polygon points="444.1,383 444.1,383 444.1,384.3 449.5,384.3 449.5,387.8 444.1,387.8 444.1,389.1 450.4,389.1 450.4,393 
		438.9,393 438.9,379.1 450.4,379.1 450.4,383 	"/>
</g>
<g>
	<path d="M466.1,393L466.1,393h-5.2c-0.9-4.5-1.6-4.5-3.2-4.5v4.5h-5v-13.7c1.1-0.2,3.4-0.4,5.2-0.4c4.1,0,8,0.9,8,4.8
		c0,2.1-1.4,3-2.7,3.6C464.5,387.5,465.6,388.7,466.1,393z M460.7,383.9L460.7,383.9c0-1.1-1.4-1.4-2.3-1.4c-0.4,0-0.5,0.2-0.7,0.2
		v2.7c0.2,0,0.4,0,0.5,0C459.1,385.3,460.7,385.2,460.7,383.9z"/>
</g>
<g>
	<path d="M487.3,393L487.3,393H482l-0.5-2.3h-4.1l-0.7,2.3h-5.4l4.8-13.9h6.4L487.3,393z M478.2,387.5L478.2,387.5h2.3l-1.2-4.3
		L478.2,387.5z"/>
</g>
<g>
	<path d="M499.8,388.4L499.8,388.4c0,3.4-2.3,4.8-6.1,4.8c-2.5,0-4.1-0.4-5.7-1.1l0.9-3.7c1.2,0.7,2.5,1.2,4.5,1.2
		c0.9,0,1.3-0.4,1.3-0.5c0-1.1-6.6-0.2-6.6-5.5c0-3,2.5-4.6,5.9-4.6c2,0,3.7,0.4,5.4,0.7l-0.9,3.7c-0.9-0.4-2.5-0.9-4.1-0.9
		c-0.7,0-1.1,0.2-1.1,0.5C493.2,384.1,499.8,383.4,499.8,388.4z"/>
</g>
<g>
	<path d="M512.9,388.4L512.9,388.4c0,3.4-2.3,4.8-6.1,4.8c-2.5,0-4.1-0.4-5.7-1.1l0.9-3.7c1.3,0.7,2.5,1.2,4.5,1.2
		c0.9,0,1.2-0.4,1.2-0.5c0-1.1-6.6-0.2-6.6-5.5c0-3,2.5-4.6,5.9-4.6c2,0,3.8,0.4,5.4,0.7l-0.9,3.7c-0.9-0.4-2.5-0.9-4.1-0.9
		c-0.5,0-1.1,0.2-1.1,0.5C506.3,384.1,512.9,383.4,512.9,388.4z"/>
</g>
<g>
	<path d="M529.7,386L529.7,386c0,4.5-3.2,7.1-7.9,7.1c-4.6,0-7.9-2.7-7.9-7.1c0-4.5,3.2-7.1,7.9-7.1
		C526.4,378.9,529.7,381.6,529.7,386z M524.3,386L524.3,386c0-2.1-0.9-3.2-2.5-3.2c-1.6,0-2.5,1.1-2.5,3.2c0,2,0.9,3.2,2.5,3.2
		C523.4,389.3,524.3,388,524.3,386z"/>
</g>
<g>
	<path d="M542.5,388.5L542.5,388.5l0.9,3.7c-1.3,0.5-3,0.9-5,0.9c-4.5,0-7.7-2.7-7.7-7.1c0-4.5,3.2-7.1,7.7-7.1c2,0,3.7,0.4,5,0.7
		l-0.9,3.7c-0.7-0.2-1.8-0.5-2.7-0.5c-2.3,0-3.6,1.2-3.6,3.2c0,2,1.2,3,3.6,3C540.7,389.1,541.8,388.9,542.5,388.5z"/>
</g>
<g>
	<polygon points="550.6,393 550.6,393 545.2,393 545.2,379.1 550.6,379.1 	"/>
</g>
<g>
	<path d="M567.7,393L567.7,393h-5.4l-0.7-2.3h-4.1L557,393h-5.4l4.8-13.9h6.3L567.7,393z M558.4,387.5L558.4,387.5h2.3l-1.1-4.3
		L558.4,387.5z"/>
</g>
<g>
	<polygon points="575.7,393 575.7,393 570.4,393 570.4,383 566.4,383 566.4,379.1 579.7,379.1 579.7,383 575.7,383 	"/>
</g>
<g>
	<polygon points="586.3,393 586.3,393 580.9,393 580.9,379.1 586.3,379.1 	"/>
</g>
<g>
	<path d="M603.8,386L603.8,386c0,4.5-3.2,7.1-7.9,7.1c-4.6,0-7.9-2.7-7.9-7.1c0-4.5,3.2-7.1,7.9-7.1
		C600.5,378.9,603.8,381.6,603.8,386z M598.4,386L598.4,386c0-2.1-0.9-3.2-2.5-3.2c-1.6,0-2.5,1.1-2.5,3.2c0,2,0.9,3.2,2.5,3.2
		C597.5,389.3,598.4,388,598.4,386z"/>
</g>
<g>
	<polygon points="620,379.1 620,379.1 620,393 614.8,393 610.5,385.9 610.5,393 605.5,393 605.5,379.1 610.9,379.1 615,386.2 
		615,379.1 	"/>
</g>
<g>
	<polygon class="st2" points="62.2,383 62.2,383 55.6,383 55.6,273.7 62.2,273.7 	"/>
</g>
<g>
	<polygon class="st2" points="120.7,398.2 120.7,398.2 115,394.6 112.5,396.2 55.9,275.1 61.8,272.3 	"/>
</g>
<g>
	<polygon class="st2" points="60.6,277.4 60.6,277.4 60,278.9 158.2,360.9 158.2,352.4 72.3,280.6 	"/>
</g>
<g>
	<polygon class="st2" points="58.9,273.5 58.9,273.5 61.1,271.2 72.3,280.6 158.2,303.6 158.2,296.7 59.8,270.5 	"/>
</g>
<g>
	<polygon class="st2" points="58.9,273.5 58.9,273.5 58.9,273.7 61.8,275.1 60.6,277.4 72.3,280.6 61.1,271.2 	"/>
</g>
<g>
	<polygon class="st2" points="58.9,273.7 58.9,273.7 58.6,273.5 58.8,273.9 	"/>
</g>
<g>
	<polygon class="st2" points="58.8,277.8 58.8,277.8 49.5,285.6 20,348.8 20,364.3 60,278.9 	"/>
</g>
<g>
	<polygon class="st2" points="58.8,277.8 58.8,277.8 60,278.9 60.6,277.4 59.5,277.2 	"/>
</g>
<g>
	<polygon class="st2" points="58.9,273.9 58.9,273.9 58.9,273.7 58.8,273.9 	"/>
</g>
<g>
	<polygon class="st2" points="58.9,273.7 58.9,273.7 58.9,273.9 60.7,276.2 59.5,277.2 60.6,277.4 61.8,275.1 	"/>
</g>
<g>
	<polygon class="st2" points="52.7,278.5 52.7,278.5 45.2,280.6 20,301.8 20,310.4 49.5,285.6 	"/>
</g>
<g>
	<polygon class="st2" points="58.8,273.9 58.8,273.9 58.6,273.5 	"/>
</g>
<g>
	<polygon class="st2" points="52.7,278.5 52.7,278.5 49.5,285.6 58.8,277.8 58.1,277.2 	"/>
</g>
<g>
	<polygon class="st2" points="58.8,273.9 58.8,273.9 58.8,274.2 58.9,273.9 	"/>
</g>
<g>
	<polygon class="st2" points="58.8,276.9 58.8,276.9 58.1,277.2 58.8,277.8 59.5,277.2 	"/>
</g>
<g>
	<polygon class="st2" points="59.5,276.7 59.5,276.7 58.8,276.9 59.5,277.2 60.7,276.2 58.9,273.9 58.8,274.2 	"/>
</g>
<g>
	<polygon class="st2" points="56.6,271.2 56.6,271.2 58.6,273.5 57.7,270.5 20,280.5 20,287.4 45.2,280.6 	"/>
</g>
<g>
	<polygon class="st2" points="58.6,273.5 58.6,273.5 56.6,271.2 45.2,280.6 52.7,278.5 55.7,272.3 	"/>
</g>
<g>
	<polygon class="st2" points="56.8,276.2 56.8,276.2 58.8,273.9 58.6,273.5 55.7,272.3 52.7,278.5 58.1,277.2 	"/>
</g>
<g>
	<polygon class="st2" points="58.8,274.2 58.8,274.2 58.8,273.9 56.8,276.2 58.1,277.2 58.8,276.9 58.1,276.7 	"/>
</g>
<g>
	<polygon class="st2" points="58.8,274.2 58.8,274.2 58.1,276.7 58.8,276.9 59.5,276.7 	"/>
</g>
<g>
	<polygon points="47.7,230.4 47.7,230.4 69.5,230.4 69.5,215.3 47.7,215.3 	"/>
</g>
<g>
	<polygon points="53.4,237.4 53.4,237.4 63.8,237.4 63.8,219.2 53.4,219.2 	"/>
</g>
<g>
	<path d="M46.4,262.8L46.4,262.8l7.3,3.9v0.2l-9.5,0.9v6.4h29.1v-6.6l-9.6-0.7v-0.2l7.3-3.9l2-22.1l-2.9-5.5L58.8,234l-11.6,1.2
		l-2.9,5.5L46.4,262.8z M60.9,243.4L60.9,243.4c0-1.1,0.9-1.8,1.8-1.8h0.2h1.8c1.1,0,2,0.9,2,1.8l0.2,9.3v2.9l-1.1,1.2l-3.9,4.3
		l-0.4,0.2L60,261L60.9,243.4z M52.7,241.6L52.7,241.6h2c1.1,0,1.8,0.7,2,1.8l0.9,17.6l-1.6,0.2l-5.4-5.7l0.4-12.1
		C50.9,242.5,51.8,241.6,52.7,241.6z"/>
</g>
<g>
	<polygon class="st2" points="60,261.2 60,261.2 60.9,243.4 56.6,243.4 57.5,261.2 	"/>
</g>
<g>
	<polygon class="st0" points="182.9,405.6 182.9,405.6 182.5,407.6 178.1,407.6 175.6,421.7 172.7,421.7 175.2,407.6 170.7,407.6 
		171.1,405.6 	"/>
</g>
<g>
	<path class="st0" d="M193.4,412.2L193.4,412.2c0,0.4,0,1.1-0.2,2l-1.4,7.5h-2.7l1.2-6.9c0.2-0.7,0.2-1.2,0.2-1.4
		c0-0.9-0.4-1.2-1.2-1.2c-0.9,0-1.6,0.4-2.5,1.4c-0.7,0.9-1.2,2.3-1.6,3.9l-0.7,4.3h-2.7l3-16.7h2.7l-1.4,8c1.4-2,3-3,4.6-3
		c0.9,0,1.6,0.2,2,0.7C193.2,411,193.4,411.5,193.4,412.2z"/>
</g>
<g>
	<path class="st0" d="M205.7,412.8L205.7,412.8c0,1.1-0.5,2.1-1.8,2.8c-1.2,0.7-3,1.1-5,1.1h-0.7v0.5c0,2,0.7,2.8,2.3,2.8
		c0.9,0,1.8-0.4,3-0.9l0.7,1.4c-1.8,0.9-3.4,1.4-4.8,1.4c-1.2,0-2.3-0.4-3-1.1c-0.7-0.9-1.1-2-1.1-3.4c0-2,0.7-3.7,2.1-5.3
		c1.4-1.4,3-2.3,5-2.3c0.9,0,1.8,0.4,2.3,0.7C205.6,411.2,205.7,411.9,205.7,412.8z M203.2,412.9L203.2,412.9c0-0.5,0-0.7-0.4-1.1
		c-0.2-0.2-0.5-0.4-0.9-0.4c-0.7,0-1.4,0.5-2.3,1.2c-0.5,0.5-0.9,1.4-1.2,2.5c0.9,0,1.4,0,1.6-0.2c0.9,0,1.8-0.2,2.3-0.7
		C203.1,414,203.2,413.5,203.2,412.9z"/>
</g>
<g>
	<path class="st0" d="M227.2,406L227.2,406l-8.4,15.7h-2.5l-2.3-15.8l2.9-0.4c0.7,4.8,1.1,9.1,1.4,12.8c1.1-2.1,3.2-6.4,6.4-12.8
		L227.2,406z"/>
</g>
<g>
	<path class="st0" d="M236.6,415.1L236.6,415.1c0,2-0.5,3.6-1.8,4.8c-1.3,1.4-2.7,2.1-4.5,2.1c-1.4,0-2.5-0.5-3.4-1.6
		c-1.1-0.9-1.4-2.1-1.4-3.7c0-1.8,0.5-3.4,2-4.8c1.2-1.2,2.7-2,4.5-2c1.4,0,2.5,0.5,3.4,1.4C236.3,412.4,236.6,413.6,236.6,415.1z
		 M233.8,414.7L233.8,414.7c0-2.1-0.7-3.2-2.1-3.2c-0.7,0-1.6,0.5-2.1,1.6c-0.7,1.1-1.1,2.3-1.1,3.7c0,2.3,0.7,3.4,2.1,3.4
		c0.7,0,1.4-0.4,2-0.9C233.4,418.1,233.8,416.7,233.8,414.7z"/>
</g>
<g>
	<path class="st0" d="M243.2,410.3L243.2,410.3l-2.1,11.4h-2.7l2-11.4H243.2z M243.9,406.5L243.9,406.5c0,0.5,0,0.9-0.4,1.4
		c-0.4,0.4-0.9,0.5-1.4,0.5c-0.4,0-0.7-0.2-0.9-0.5c-0.4-0.2-0.4-0.5-0.4-0.9c0-0.5,0.2-1.1,0.4-1.4c0.4-0.4,0.9-0.5,1.4-0.5
		c0.4,0,0.7,0.2,0.9,0.4C243.9,405.8,243.9,406.2,243.9,406.5z"/>
</g>
<g>
	<path class="st0" d="M254.7,410.8L254.7,410.8l-1.1,1.6c-0.7-0.5-1.2-0.7-1.8-0.7c-1.2,0-2.1,0.5-3,1.6c-0.7,0.9-1.1,2.1-1.1,3.6
		c0,0.9,0.2,1.8,0.5,2.3c0.5,0.5,1.1,0.9,1.8,0.9c0.7,0,1.4-0.4,2.5-0.7l0.7,1.4c-1.6,0.7-2.9,1.2-4.1,1.2c-1.4,0-2.5-0.5-3.2-1.4
		c-0.9-0.9-1.2-2-1.2-3.4c0-2,0.7-3.7,2.1-5.2c1.2-1.4,2.9-2.1,4.8-2.1C252.7,409.9,253.8,410.3,254.7,410.8z"/>
</g>
<g>
	<path class="st0" d="M265.2,412.8L265.2,412.8c0,1.1-0.7,2.1-2,2.8c-1.3,0.7-2.9,1.1-4.8,1.1h-0.9v0.5c0,2,0.9,2.8,2.5,2.8
		c0.9,0,1.8-0.4,3-0.9l0.7,1.4c-1.8,0.9-3.4,1.4-4.8,1.4c-1.3,0-2.3-0.4-3-1.1c-0.7-0.9-1.2-2-1.2-3.4c0-2,0.7-3.7,2.1-5.3
		c1.6-1.4,3.2-2.3,5.2-2.3c0.9,0,1.8,0.4,2.3,0.7C264.9,411.2,265.2,411.9,265.2,412.8z M262.7,412.9L262.7,412.9
		c0-0.5-0.2-0.7-0.4-1.1c-0.2-0.2-0.5-0.4-0.9-0.4c-0.7,0-1.6,0.5-2.3,1.2c-0.5,0.5-1.1,1.4-1.2,2.5c0.9,0,1.4,0,1.6-0.2
		c0.9,0,1.6-0.2,2.3-0.7C262.3,414,262.7,413.5,262.7,412.9z"/>
</g>
<g>
	<path class="st0" d="M283.4,415.1L283.4,415.1c0,2-0.5,3.6-1.8,4.8c-1.3,1.4-2.7,2.1-4.5,2.1c-1.4,0-2.5-0.5-3.6-1.6
		c-0.9-0.9-1.2-2.1-1.2-3.7c0-1.8,0.5-3.4,1.8-4.8c1.4-1.2,2.9-2,4.6-2c1.4,0,2.5,0.5,3.4,1.4C283.1,412.4,283.4,413.6,283.4,415.1z
		 M280.6,414.7L280.6,414.7c0-2.1-0.7-3.2-2.1-3.2c-0.9,0-1.6,0.5-2.3,1.6c-0.5,1.1-0.9,2.3-0.9,3.7c0,2.3,0.7,3.4,2.1,3.4
		c0.7,0,1.4-0.4,2-0.9C280.2,418.1,280.6,416.7,280.6,414.7z"/>
</g>
<g>
	<path class="st0" d="M294.3,405.3L294.3,405.3l-0.9,1.4c-0.4-0.2-0.7-0.2-0.9-0.2c-0.7,0-1.1,0.2-1.4,0.5c-0.2,0.5-0.5,1.1-0.5,2.1
		l-0.4,1.1h2.5l-0.2,1.6H290l-1.8,9.8h-2.9l2-9.8h-1.6l0.2-1.6h1.6l0.2-1.1c0.4-1.4,0.7-2.5,1.4-3.2c0.9-0.9,2-1.2,3-1.2
		C292.9,404.7,293.6,404.9,294.3,405.3z"/>
</g>
<g>
	<path class="st0" d="M306.3,410.3L306.3,410.3l-0.4,1.6h-2.7l-1.1,5.5c-0.2,0.7-0.4,1.4-0.4,1.6c0,0.7,0.4,1.1,1.1,1.1
		c0.4,0,0.9,0,1.6-0.2l0.2,1.4c-1.1,0.4-2,0.7-2.9,0.7c-1.8,0-2.7-0.9-2.7-2.3c0-0.2,0-0.9,0.4-2.1l0.9-5.7h-1.2l0.2-1.6h1.4
		l0.5-2.8l2.9-0.7l-0.7,3.6H306.3z"/>
</g>
<g>
	<path class="st0" d="M318.2,412.2L318.2,412.2c0,0.4-0.2,1.1-0.4,2l-1.4,7.5h-2.7l1.2-6.9c0.2-0.7,0.4-1.2,0.4-1.4
		c0-0.9-0.5-1.2-1.2-1.2c-0.9,0-1.8,0.4-2.5,1.4c-0.9,0.9-1.4,2.3-1.6,3.9l-0.9,4.3h-2.7l3-16.7h2.9l-1.6,8c1.4-2,3-3,4.8-3
		c0.7,0,1.4,0.2,2,0.7C317.9,411,318.2,411.5,318.2,412.2z"/>
</g>
<g>
	<path class="st0" d="M330.6,412.8L330.6,412.8c0,1.1-0.7,2.1-2,2.8c-1.3,0.7-2.9,1.1-5,1.1h-0.7v0.5c0,2,0.9,2.8,2.5,2.8
		c0.7,0,1.8-0.4,2.9-0.9l0.7,1.4c-1.6,0.9-3.2,1.4-4.7,1.4c-1.4,0-2.3-0.4-3-1.1c-0.9-0.9-1.3-2-1.3-3.4c0-2,0.7-3.7,2.1-5.3
		c1.4-1.4,3.2-2.3,5-2.3c1.1,0,1.8,0.4,2.5,0.7C330.2,411.2,330.6,411.9,330.6,412.8z M328.1,412.9L328.1,412.9
		c0-0.5-0.2-0.7-0.4-1.1c-0.4-0.2-0.5-0.4-0.9-0.4c-0.9,0-1.6,0.5-2.3,1.2c-0.5,0.5-1.1,1.4-1.4,2.5c1.1,0,1.6,0,1.6-0.2
		c0.9,0,1.8-0.2,2.3-0.7C327.7,414,328.1,413.5,328.1,412.9z"/>
</g>
<g>
	<polygon class="st0" points="348.6,405.6 348.6,405.6 348.2,407.6 343.4,407.6 342.3,412.8 347.2,412.8 346.8,414.7 342,414.7 
		340.7,421.7 337.9,421.7 340.9,405.6 	"/>
</g>
<g>
	<path class="st0" d="M352.7,410.3L352.7,410.3l-2.1,11.4h-2.7l2.1-11.4H352.7z M353.6,406.5L353.6,406.5c0,0.5-0.2,0.9-0.5,1.4
		c-0.4,0.4-0.7,0.5-1.2,0.5c-0.4,0-0.7-0.2-1.1-0.5c-0.2-0.2-0.4-0.5-0.4-0.9c0-0.5,0.2-1.1,0.5-1.4c0.4-0.4,0.9-0.5,1.4-0.5
		c0.4,0,0.7,0.2,0.9,0.4C353.4,405.8,353.6,406.2,353.6,406.5z"/>
</g>
<g>
	<path class="st0" d="M363.4,410.8L363.4,410.8l-1.4,2.1c-0.4-0.2-0.7-0.4-1.1-0.4c-0.9,0-1.4,0.5-2,1.2c-0.5,0.7-0.9,1.6-1.1,3
		l-0.9,4.8h-2.7l2-11.4h2.9l-0.5,2.1l0.9-1.1c0.7-0.9,1.4-1.4,2.1-1.4C362.2,409.9,362.7,410.3,363.4,410.8z"/>
</g>
<g>
	<path class="st0" d="M373.2,412.8L373.2,412.8c0,1.1-0.5,2.1-1.8,2.8c-1.3,0.7-2.9,1.1-5,1.1h-0.7v0.5c0,2,0.7,2.8,2.3,2.8
		c0.9,0,2-0.4,3-0.9l0.7,1.4c-1.8,0.9-3.2,1.4-4.8,1.4c-1.2,0-2.3-0.4-3-1.1c-0.7-0.9-1.1-2-1.1-3.4c0-2,0.7-3.7,2.1-5.3
		c1.4-1.4,3-2.3,5-2.3c1.1,0,1.8,0.4,2.3,0.7C373,411.2,373.2,411.9,373.2,412.8z M370.7,412.9L370.7,412.9c0-0.5,0-0.7-0.4-1.1
		c-0.2-0.2-0.5-0.4-0.9-0.4c-0.7,0-1.4,0.5-2.3,1.2c-0.5,0.5-0.9,1.4-1.3,2.5c0.9,0,1.4,0,1.6-0.2c0.9,0,1.8-0.2,2.3-0.7
		C370.5,414,370.7,413.5,370.7,412.9z"/>
</g>
<g>
	<path class="st0" d="M390.6,406.5L390.6,406.5l-1.3,1.6c-0.7-0.5-1.4-0.7-2-0.7c-0.7,0-1.5,0.2-1.8,0.5c-0.4,0.4-0.5,0.9-0.5,1.4
		c0,0.7,0.4,1.6,1.2,2.7c0,0.2,0.5,0.7,1.3,1.6c1.1,1.2,1.6,2.5,1.6,3.7c0,1.2-0.5,2.5-1.6,3.2c-0.9,0.9-2.3,1.4-3.9,1.4
		c-1.6,0-3-0.5-4.1-1.6l1.1-1.8c1.1,0.9,2,1.2,2.9,1.2c0.9,0,1.4-0.2,2-0.7c0.4-0.4,0.7-0.9,0.7-1.6c0-0.9-0.4-1.6-1.1-2.7
		c0,0-0.5-0.5-1.6-2c-0.9-1.2-1.4-2.3-1.4-3.4c0-1.2,0.4-2.1,1.4-3c0.9-0.7,2.1-1.1,3.6-1.1C388.2,405.5,389.5,405.8,390.6,406.5z"
		/>
</g>
<g>
	<path class="st0" d="M402.7,414.4L402.7,414.4c0,2.1-0.7,4.1-2.3,5.7c-1.1,1.2-2.3,2-3.7,2c-1.1,0-2.1-0.5-2.9-1.2l-1.3,6.6h-2.7
		l3-17.1h2.9l-0.5,2.1c0.9-0.9,1.6-1.4,2.1-2c0.5-0.4,1.2-0.5,2-0.5c1.1,0,2,0.4,2.5,1.2C402.4,411.9,402.7,412.9,402.7,414.4z
		 M399.9,414.4L399.9,414.4c0-1.6-0.5-2.5-1.8-2.5c-0.9,0-1.8,0.7-2.7,2.1c-0.5,1.2-1.1,3-1.2,5c0.4,0.9,1.1,1.2,2,1.2
		c1.1,0,1.8-0.5,2.7-1.8C399.5,417.4,399.9,416,399.9,414.4z"/>
</g>
<g>
	<path class="st0" d="M413.4,410.8L413.4,410.8l-1.4,2.1c-0.4-0.2-0.7-0.4-1.1-0.4c-0.7,0-1.4,0.5-2,1.2c-0.5,0.7-0.9,1.6-1.1,3
		l-0.9,4.8h-2.7l2.1-11.4h2.7l-0.4,2.1l0.9-1.1c0.5-0.9,1.3-1.4,2-1.4C412.2,409.9,412.9,410.3,413.4,410.8z"/>
</g>
<g>
	<path class="st0" d="M418.1,410.3L418.1,410.3l-2.1,11.4h-2.7l2-11.4H418.1z M418.9,406.5L418.9,406.5c0,0.5-0.2,0.9-0.5,1.4
		c-0.4,0.4-0.9,0.5-1.4,0.5c-0.4,0-0.7-0.2-0.9-0.5c-0.4-0.2-0.4-0.5-0.4-0.9c0-0.5,0.2-1.1,0.4-1.4c0.4-0.4,0.9-0.5,1.4-0.5
		c0.4,0,0.7,0.2,0.9,0.4C418.8,405.8,418.9,406.2,418.9,406.5z"/>
</g>
<g>
	<path class="st0" d="M431.3,412.2L431.3,412.2c0,0.4-0.2,1.1-0.4,2l-1.4,7.5h-2.7l1.3-6.9c0.2-0.7,0.4-1.2,0.4-1.4
		c0-0.9-0.5-1.2-1.3-1.2c-0.9,0-1.8,0.4-2.5,1.4c-0.9,0.9-1.4,2.3-1.6,3.9l-0.9,4.3h-2.7l2.1-11.4h2.7l-0.5,2.7c1.4-2,3-3,4.8-3
		c0.7,0,1.4,0.2,2,0.7C430.9,411,431.3,411.5,431.3,412.2z"/>
</g>
<g>
	<polygon class="st0" points="443.6,411.2 443.6,411.2 439.3,415.3 442.7,421 440,421.8 436.8,415.4 435.7,421.7 432.9,421.7 
		436.1,404.9 438.8,404.9 437,414.9 437.2,414.9 441.8,410.1 	"/>
</g>
<g>
	<polygon class="st0" points="450.2,404.9 450.2,404.9 447.2,421.7 444.5,421.7 447.5,404.9 	"/>
</g>
<g>
	<path class="st0" d="M461.3,412.8L461.3,412.8c0,1.1-0.7,2.1-2,2.8c-1.3,0.7-2.9,1.1-4.8,1.1h-0.9v0.5c0,2,0.9,2.8,2.5,2.8
		c0.9,0,1.8-0.4,3-0.9l0.7,1.4c-1.8,0.9-3.4,1.4-4.8,1.4c-1.3,0-2.3-0.4-3-1.1c-0.7-0.9-1.2-2-1.2-3.4c0-2,0.7-3.7,2.1-5.3
		c1.6-1.4,3.2-2.3,5.2-2.3c0.9,0,1.8,0.4,2.3,0.7C460.9,411.2,461.3,411.9,461.3,412.8z M458.8,412.9L458.8,412.9
		c0-0.5-0.2-0.7-0.4-1.1c-0.2-0.2-0.5-0.4-0.9-0.4c-0.7,0-1.6,0.5-2.3,1.2c-0.5,0.5-1.1,1.4-1.2,2.5c0.9,0,1.4,0,1.6-0.2
		c0.9,0,1.6-0.2,2.3-0.7C458.4,414,458.8,413.5,458.8,412.9z"/>
</g>
<g>
	<path class="st0" d="M471.5,410.8L471.5,410.8l-1.4,2.1c-0.4-0.2-0.7-0.4-1.1-0.4c-0.7,0-1.4,0.5-2,1.2c-0.5,0.7-0.9,1.6-1.1,3
		l-0.9,4.8h-2.7l2.1-11.4h2.7l-0.4,2.1l0.9-1.1c0.5-0.9,1.3-1.4,2-1.4C470.2,409.9,470.9,410.3,471.5,410.8z"/>
</g>
<g>
	<polygon class="st0" points="483.2,405.6 483.2,405.6 480.2,421.7 477.3,421.7 480.4,405.6 	"/>
</g>
<g>
	<path class="st0" d="M495.9,412.2L495.9,412.2c0,0.4-0.2,1.1-0.4,2l-1.2,7.5h-2.9l1.4-6.9c0-0.7,0.2-1.2,0.2-1.4
		c0-0.9-0.5-1.2-1.2-1.2c-0.9,0-1.8,0.4-2.5,1.4c-0.7,0.9-1.3,2.3-1.6,3.9l-0.9,4.3h-2.7l2.1-11.4h2.7l-0.5,2.7c1.4-2,3-3,4.8-3
		c0.9,0,1.4,0.2,2,0.7C495.5,411,495.9,411.5,495.9,412.2z"/>
</g>
<g>
	<path class="st0" d="M510.7,404.9L510.7,404.9l-3.2,16.7h-2.7l0.4-2c-0.9,0.9-1.6,1.4-2.1,1.8c-0.5,0.4-1.2,0.5-2,0.5
		c-1.1,0-1.8-0.5-2.3-1.2c-0.7-0.9-0.9-2-0.9-3.2c0-2.1,0.5-3.9,1.8-5.3c1.2-1.4,2.7-2.3,4.3-2.3c1.2,0,2.1,0.5,2.7,1.6l1.3-6.6
		H510.7z M506.3,413.5L506.3,413.5c0-0.5-0.2-0.9-0.5-1.2c-0.4-0.4-0.9-0.5-1.4-0.5c-0.9,0-1.8,0.5-2.5,1.8
		c-0.7,1.1-1.1,2.5-1.1,4.1c0,1.6,0.5,2.5,1.6,2.5c1.1,0,2-0.7,2.9-2.3C505.9,416.3,506.3,414.9,506.3,413.5z"/>
</g>
<g>
	<path class="st0" d="M523.1,410.3L523.1,410.3l-2.1,11.4h-2.7l0.5-2.7c-1.4,2-3,3-4.8,3c-0.7,0-1.4-0.4-1.8-0.7
		c-0.5-0.4-0.7-1.1-0.7-1.8c0-0.4,0-1.1,0.2-1.8l1.4-7.5h2.7l-1.2,6.8c-0.2,0.9-0.2,1.2-0.2,1.6c0,0.9,0.4,1.2,1.3,1.2
		c0.9,0,1.6-0.5,2.5-1.4c0.7-1.1,1.2-2.3,1.6-3.9l0.7-4.3H523.1z"/>
</g>
<g>
	<path class="st0" d="M532.5,411L532.5,411l-1.1,1.4c-0.5-0.5-1.1-0.7-1.8-0.7c-0.4,0-0.7,0-0.9,0.4c-0.4,0.2-0.5,0.5-0.5,0.9
		c0,0.4,0.2,0.7,0.5,1.2c0.4,0.2,0.7,0.5,0.9,0.9c0.7,0.9,1.3,1.6,1.4,2c0.4,0.5,0.5,1.1,0.5,1.6c0,0.9-0.5,1.8-1.3,2.3
		c-0.9,0.7-2,1.1-3.2,1.1c-1.2,0-2.5-0.4-3.6-1.1l0.9-1.8c0.9,0.7,1.8,1.1,2.5,1.1c0.5,0,0.9-0.2,1.2-0.5c0.4-0.2,0.5-0.5,0.5-1.1
		c0-0.4-0.2-0.5-0.4-0.9c0-0.4-0.5-0.7-1.3-1.6c-0.5-0.7-1.1-1.4-1.2-1.8c-0.4-0.4-0.4-0.9-0.4-1.4c0-0.7,0.4-1.4,1.1-2.1
		c0.7-0.5,1.6-0.9,2.7-0.9C530.6,409.9,531.4,410.3,532.5,411z"/>
</g>
<g>
	<path class="st0" d="M541.4,410.3L541.4,410.3l-0.2,1.6h-2.9l-1.1,5.5c0,0.7-0.2,1.4-0.2,1.6c0,0.7,0.4,1.1,1.1,1.1
		c0.4,0,0.9,0,1.6-0.2v1.4c-0.9,0.4-1.8,0.7-2.9,0.7c-1.8,0-2.7-0.9-2.7-2.3c0-0.2,0.2-0.9,0.4-2.1l1.1-5.7h-1.4l0.4-1.6h1.4
		l0.5-2.8l2.9-0.7l-0.7,3.6H541.4z"/>
</g>
<g>
	<path class="st0" d="M550.9,410.8L550.9,410.8l-1.4,2.1c-0.4-0.2-0.7-0.4-1.1-0.4c-0.9,0-1.4,0.5-2,1.2c-0.5,0.7-0.9,1.6-1.1,3
		l-0.9,4.8h-2.7l2.1-11.4h2.7l-0.4,2.1l0.7-1.1c0.7-0.9,1.4-1.4,2.1-1.4C549.7,409.9,550.2,410.3,550.9,410.8z"/>
</g>
<g>
	<path class="st0" d="M562.5,410.6L562.5,410.6l-10.7,16.7l-2-1.1l3.9-5.9l-1.8-10l2.9-0.5c0.2,1.4,0.4,3.6,0.7,6.4
		c0,0.4,0.2,1.1,0.2,2c1.8-3.4,3.4-6.1,4.8-8.4L562.5,410.6z"/>
</g>
</svg>
