<?xml version="1.0" encoding="utf-8"?>
<!-- Generator: Adobe Illustrator 19.0.0, SVG Export Plug-In . SVG Version: 6.00 Build 0)  -->
<svg version="1.1" id="layer" xmlns="http://www.w3.org/2000/svg" xmlns:xlink="http://www.w3.org/1999/xlink" x="0px" y="0px"
	 viewBox="-153 -46 652 652" style="enable-background:new -153 -46 652 652;" xml:space="preserve">
<style type="text/css">
	.st0{fill:#00408B;}
</style>
<path class="st0" d="M11.8,211.7h28v126.2h-28V211.7z M160.1,211.9v121.5l-50.7-64.2l44.6-57.3h-31.6L78,269.5v-57.6H50.6v125.5H78
	v-64.5l51.3,64.5h58.1V211.9H160.1z M-97.8,211.7l71,89.6v-89.6H1.3v126.2h-33.2l-100-126.2H-97.8 M362.7,291.2
	c6.1,16,25.1,14.7,28.2,7.8c-4.8,3.4-23.1,1.6-25.1-15.8c-0.4-3.6,0.7-6.6,2.2-9c1.2-2,5.6-8.9,7.3-13.1c2.6-6.2,4.3-13.1,4.9-20
	c0-0.7,0.6-1.3,1.3-1.3c0.7,0,1.3,0.6,1.3,1.3c0.7,6.9,2.3,13.8,4.9,19.9c1.8,4.2,6,11.1,7.5,13.2c3.4,4.8,5.1,10.7,5.1,17
	c0,10.3-8.4,18.8-18.8,18.8C371.2,309.9,362.7,301.5,362.7,291.2"/>
<path class="st0" d="M434.6,269.3h-27v47.4c-4.6,1.6-11.9,4.7-20.9,4.7c-28.4,0-45.3-23.3-45.3-45.8c0-24.9,20.8-45.8,49.2-45.8
	c18.8,0,30.6,7.7,37.4,11.1v-25c-13.6-4.3-23.1-6.5-37.7-6.5c-40.3,0-66.7,19.8-73.5,45.3v-42.1h-28l0.3,73.1l-66.3-73.1h-26.2
	v124.8h28.1l0-83.4l76.6,83.4h15.5v-39.1c9.1,26.2,33.3,42.8,68.7,42.8c18.7,0,32-4.8,49.3-12.2
	C434.9,328.8,434.6,269.3,434.6,269.3z M468.1,223.2c0,5.7-4.6,10.2-10.3,10.2c-5.8,0-10.4-4.5-10.4-10.2c0-5.7,4.6-10.1,10.5-10.1
	C463.6,213.1,468.1,217.6,468.1,223.2z M450,223.2c0,4.5,3.4,8,7.9,8c4.4,0.1,7.7-3.6,7.7-8c0-4.5-3.3-8.1-7.8-8.1
	C453.3,215.2,450,218.8,450,223.2z M456.2,228.5h-2.3v-10.1c0.9-0.1,2.2-0.3,3.9-0.3c1.9,0,2.8,0.3,3.5,0.8c0.6,0.4,1,1.2,1,2.1
	c0,1.2-0.9,2-2.1,2.4v0.1c1,0.3,1.5,1.1,1.8,2.5c0.3,1.5,0.6,2.1,0.7,2.5h-2.4c-0.3-0.4-0.5-1.2-0.8-2.5c-0.2-1-0.8-1.5-2.1-1.5
	h-1.1C456.2,224.5,456.2,228.5,456.2,228.5z M456.2,222.8h1.1c1.3,0,2.3-0.4,2.3-1.5c0-0.9-0.7-1.5-2.1-1.5c-0.6,0-1,0.1-1.3,0.1
	V222.8z"/>
</svg>
