<svg id="Layer_1" data-name="Layer 1" xmlns="http://www.w3.org/2000/svg" viewBox="0 0 90 90"><path d="M52.42627,68.00977l-7.46826-3.104a8.42261,8.42261,0,0,0-11.3584,5.56153l-.18836.69055A55.37562,55.37562,0,0,1,19.27448,56.71362l.44866-.12231a8.42217,8.42217,0,0,0,5.56153-11.3584l-3.104-7.46875a6.91914,6.91914,0,0,0-8.3999-3.98291L12,34.31543a14.81336,14.81336,0,0,0-9.08252,7.78906,13.91307,13.91307,0,0,0-.41113,11.356C2.5918,53.7168,11.35547,79.22607,36.73,87.68457a15.77985,15.77985,0,0,0,4.98584.80859,15.24888,15.24888,0,0,0,7.019-1.68945A14.2401,14.2401,0,0,0,55.875,78.19092l.53418-1.78028A6.92005,6.92005,0,0,0,52.42627,68.00977Zm2.06689,7.82617L53.959,77.6167a12.25554,12.25554,0,0,1-6.146,7.41162,13.50983,13.50983,0,0,1-10.4502.75879C12.95654,77.65186,4.48633,53.07471,4.38135,52.7666a11.97975,11.97975,0,0,1,.34033-9.79931,12.80855,12.80855,0,0,1,7.85254-6.73584l1.78125-.53418A4.92221,4.92221,0,0,1,20.334,38.53174l3.104,7.46875a6.4227,6.4227,0,0,1-4.24121,8.66113l-3.40821.9292a1.0001,1.0001,0,1,0,.52637,1.92969l.91724-.25006A57.384,57.384,0,0,0,32.853,73.20435l-.18311.67114a1.0001,1.0001,0,1,0,1.92969.52637l.92969-3.40821a6.42314,6.42314,0,0,1,8.66113-4.24121l7.46826,3.104A4.92505,4.92505,0,0,1,54.49316,75.83594Z" /><path d="M48.00146,1.5A40.49263,40.49263,0,0,0,9.65625,28.93457a1.00012,1.00012,0,0,0,1.89355.64453A38.50524,38.50524,0,1,1,61.63428,78.01416a.99983.99983,0,1,0,.708,1.87012A40.50523,40.50523,0,0,0,48.00146,1.5Z" /><path d="M51.50391,29.91016a.99932.99932,0,0,0-1.12159.40234l-8.248,12.37207a.99992.99992,0,0,0,.832,1.55469h7.248v3.124a1,1,0,0,0,2,0v-3.124H53.689a1,1,0,1,0,0-2h-1.4746V30.86719A1,1,0,0,0,51.50391,29.91016Zm-1.28955,12.3291H44.835l5.3794-8.06934Z" /><path d="M36.78027,29.86719a5.54269,5.54269,0,0,0-5.53662,5.53613v.4126a1,1,0,1,0,2,0v-.4126a3.53638,3.53638,0,0,1,7.07276,0c0,1.34375-1.47315,3.11816-2.07911,3.73l-6.74023,7.56494a.99976.99976,0,0,0,.74658,1.665H42.1416a1,1,0,0,0,0-2h-7.668l5.21729-5.85791c.26855-.26855,2.62549-2.69482,2.62549-5.102A5.54228,5.54228,0,0,0,36.78027,29.86719Z" /><path d="M53.44189,54.33594a.99882.99882,0,0,0,1.28907-.582l10.80371-28.5708a1.00012,1.00012,0,1,0-1.8711-.707L52.85986,53.04688A1.00019,1.00019,0,0,0,53.44189,54.33594Z" /><path d="M67.01562,48.23779a.99974.99974,0,0,0,1.35938-.38965l9.14746-16.49609a.99987.99987,0,0,0-.87451-1.48486H66.75049a1,1,0,0,0,0,2H74.9502L66.626,46.87842A.9997.9997,0,0,0,67.01562,48.23779Z" /></svg>