<svg id="Layer_1" data-name="Layer 1" xmlns="http://www.w3.org/2000/svg" viewBox="0 0 90 90"><path d="M73.79.252h-5.4834a.99974.99974,0,0,0-1,1V58.83252a.99974.99974,0,0,0,1,1H73.79a12.70972,12.70972,0,1,1,0,25.41943H3.5V20.07422H60.08105a1,1,0,0,0,0-2H2.5a.99974.99974,0,0,0-1,1V86.25195a.99974.99974,0,0,0,1,1H73.79A14.72632,14.72632,0,0,0,88.5,72.542V14.96143A14.72623,14.72623,0,0,0,73.79.252ZM86.5,65.14258a14.71865,14.71865,0,0,0-12.71-7.31006h-4.4834V2.252H73.79A12.72456,12.72456,0,0,1,86.5,14.96143Z" /><path d="M23.06445,42.00977a1,1,0,0,0,0-2H16.21a.99974.99974,0,0,0-1,1V72.542a.99974.99974,0,0,0,1,1H69.81543a10.529,10.529,0,0,0,7.49316-3.10351l1.30176-1.30225a.99989.99989,0,0,0-1.41406-1.41406l-1.30176,1.30224a8.54267,8.54267,0,0,1-6.0791,2.51758H40.5166V57.46143a1,1,0,1,0-2,0V71.542H17.21V58.46143H31.29a1,1,0,0,0,0-2H17.21V42.00977Z" /><path d="M60.08105,31.78418H39.5166a.99974.99974,0,0,0-1,1v7.22559H32.66113a1,1,0,0,0,0,2H38.5166v5.855a1,1,0,0,0,2,0V33.78418H60.08105a1,1,0,0,0,0-2Z" /><path d="M60.08105,46.86475H49.11328a1,1,0,0,0,0,2H60.08105a1,1,0,0,0,0-2Z" /></svg>