<svg id="Layer_1" data-name="Layer 1" xmlns="http://www.w3.org/2000/svg" viewBox="0 0 90 90"><path d="M42.51074,88.18652a2.87887,2.87887,0,0,1-2.08886-.8916l-8.41407-8.82568a18.52567,18.52567,0,1,1,3.83692-4.34082L44.60156,83.311a2.86283,2.86283,0,0,1,.79688,1.98974,2.88449,2.88449,0,0,1-2.8877,2.88574ZM32.11719,75.686l9.752,10.22851a.88908.88908,0,0,0,1.25488.02783v-.00049a.88445.88445,0,0,0,.03125-1.24951L33.27734,74.33447l.47168-.67138a16.52347,16.52347,0,1,0-2.35449,2.688ZM20.23145,78.34668A14.15161,14.15161,0,1,1,34.38184,64.1958,14.1666,14.1666,0,0,1,20.23145,78.34668Zm0-26.30322A12.15161,12.15161,0,1,0,32.38184,64.1958,12.16494,12.16494,0,0,0,20.23145,52.04346Z" /><path d="M79.0918,49.53711l-14.419-6.17969c-.013-.00561-.02685-.00336-.03992-.00836-.01379-.00531-.02307-.01666-.03723-.02142a.9529.9529,0,0,0-.15588-.01917.97815.97815,0,0,0-.197-.02417.96011.96011,0,0,0-.19293.03668.63568.63568,0,0,0-.34174.156.96587.96587,0,0,0-.0946.06079,12.61206,12.61206,0,0,1,.57983-4.08264c.00482-.01386.00153-.02783.00568-.04175a12.8067,12.8067,0,0,0,3.39862-6.08276,46.63491,46.63491,0,0,0,.7705-6.51221,1.0002,1.0002,0,0,0-.94824-1.04932,1.01408,1.01408,0,0,0-1.0498.94776,45.42814,45.42814,0,0,1-.71778,6.14843,10.96264,10.96264,0,0,1-21.29394.00147,46.11751,46.11751,0,0,1-.709-6.14893,1.00026,1.00026,0,0,0-1.998.09961,46.95678,46.95678,0,0,0,.76172,6.51172,12.79438,12.79438,0,0,0,3.40747,6.09223c.00348.01141.00073.02288.00464.03424a12.59963,12.59963,0,0,1,.58026,4.08178.82768.82768,0,0,0-.43842-.21716.959.959,0,0,0-.18933-.036.97457.97457,0,0,0-.20111.02472.95456.95456,0,0,0-.15277.01874c-.0141.0047-.02338.01611-.03717.02136-.01312.00506-.027.00275-.04.00842l-9.2832,3.9792a.66248.66248,0,0,0-.22216,1.0569q.22446.25158.441.51029a.65577.65577,0,0,0,.76255.18655l7.642-3.275a.449.449,0,0,1,.6028.27072l1.27861,3.83638a.449.449,0,0,1-.10849.45945L42.95659,53.8848a.449.449,0,0,1-.76192-.38106l.41568-2.90608a1.00031,1.00031,0,0,0-1.98047-.28321l-.68656,4.805a.4272.4272,0,0,0,.02119.2056,20.7587,20.7587,0,0,1,.89425,3.29185.98621.98621,0,0,0,.43812-.24389l6.40958-6.40962a.44821.44821,0,0,1,.58337-.04591c1.79973,1.30717,5.71994,5.274,5.71994,15.018a1,1,0,0,0,2,0c0-9.79892,3.90917-13.73105,5.7153-15.02482a.44845.44845,0,0,1,.58127.0474l6.41534,6.41492a1.0001,1.0001,0,0,0,1.69727-.84864l-1.03028-7.21a1.00031,1.00031,0,0,0-1.98047.28321l.41568,2.90608a.449.449,0,0,1-.76192.38106L63.55886,50.382a.449.449,0,0,1-.10846-.45952l1.27931-3.83665a.449.449,0,0,1,.60276-.27067L78.251,51.35059c7.582,3.791,7.6875,15.46826,7.6875,15.58593a1,1,0,0,0,1,.99854h.001a.99975.99975,0,0,0,.999-.99951C87.93848,66.40576,87.83887,53.9082,79.0918,49.53711Zm-17.83374.2978c-1.21992.72168-4.08855,2.87089-5.82854,7.82a.44462.44462,0,0,1-.83969,0c-1.74019-4.94911-4.6091-7.09833-5.82922-7.82a.43587.43587,0,0,1-.19471-.24174l-.92576-2.77788c.009-.01642.02252-.02869.03076-.04578a9.09225,9.09225,0,0,0,.70855-4.57583.44686.44686,0,0,1,.66262-.42209,13.03274,13.03274,0,0,0,11.93476-.00247.44688.44688,0,0,1,.663.422,9.09726,9.09726,0,0,0,.70788,4.57789c.00836.0174.02209.02985.03125.04651l-.92619,2.77771A.43585.43585,0,0,1,61.25806,49.83491Z" /><path d="M75.6084,65.93555H72.87549l.59131-1.77344a.99964.99964,0,1,0-1.89649-.63281l-.8023,2.40625H69.39246c.0003-.0105.006-.01923.006-.02979V62.81592a1,1,0,0,0-2,0v3.08984c0,.01056.00567.01929.006.02979H65.30859a1,1,0,0,0,0,2h6.1767l.003.00049.00311-.00049h4.117a1,1,0,0,0,0-2Z" /><path d="M55.00977,25.70752c7.08007,0,16.01367-.79688,18.35937-4.59375a1.00134,1.00134,0,0,0,.14941-.52588V19.55762a1,1,0,0,0-2,0v.71972c-1.66113,2.15284-7.77539,3.43018-16.50878,3.43018-8.73633,0-14.85157-1.27734-16.50977-3.42969v-.72021a1,1,0,0,0-2,0v1.03027a.99678.99678,0,0,0,.14941.5249C38.99219,24.91064,47.92676,25.70752,55.00977,25.70752Z" /><path d="M64.09863,17.54443a50.0144,50.0144,0,0,1-9.08886,1.01319,50.00434,50.00434,0,0,1-9.08887-1.01319.99986.99986,0,0,0-.36133,1.9668,51.73269,51.73269,0,0,0,9.4502,1.04639A51.76245,51.76245,0,0,0,64.46,19.51123a.99986.99986,0,1,0-.36133-1.9668Z" /><path d="M40.58984,18.49756a.99974.99974,0,0,0,1-1A12.58087,12.58087,0,0,1,50.91992,5.68933V8.228a1,1,0,0,0,2,0v-4.001a12.93778,12.93778,0,0,1,4.17969.0293V8.228a1,1,0,1,0,2,0V5.68933a12.58008,12.58008,0,0,1,9.3291,11.80823,1,1,0,0,0,2,0c0-6.52826-4.77411-12.26038-11.4425-13.89765a2.01067,2.01067,0,0,0-1.60633-1.35333,16.91,16.91,0,0,0-4.74121,0,2.01,2.01,0,0,0-1.60541,1.35327c-6.66925,1.63727-11.44342,7.369-11.44342,13.89771A.99974.99974,0,0,0,40.58984,18.49756Z" /></svg>