<svg id="Layer_1" data-name="Layer 1" xmlns="http://www.w3.org/2000/svg" viewBox="0 0 90 90"><path d="M65.19336,29.25244C65.19336,18.5708,56.13477,9.88037,45,9.88037S24.80664,18.5708,24.80664,29.25244,33.86523,48.62451,45,48.62451,65.19336,39.93408,65.19336,29.25244Zm-38.3371.93518a.981.981,0,0,0,.321.06482h1.37109a1,1,0,1,0,0-2H27.17725a.98127.98127,0,0,0-.321.06482A16.88574,16.88574,0,0,1,31.51294,17.6344a.98306.98306,0,0,0,.19263.27722l.96923.92822a1.00012,1.00012,0,1,0,1.38379-1.44433l-.96923-.92822a.96133.96133,0,0,0-.21045-.13318,18.721,18.721,0,0,1,24.24243.00018.96577.96577,0,0,0-.2107.133l-.96923.92822a1.00012,1.00012,0,0,0,1.38379,1.44433l.96923-.92822a.98306.98306,0,0,0,.19263-.27722,16.88574,16.88574,0,0,1,4.65668,10.68286.98127.98127,0,0,0-.321-.06482H61.45166a1,1,0,0,0,0,2h1.37109a.981.981,0,0,0,.321-.06482A16.88565,16.88565,0,0,1,58.487,40.87054a.98382.98382,0,0,0-.193-.27728l-.96924-.92773a.99979.99979,0,1,0-1.38282,1.44433l.96924.92774a.9675.9675,0,0,0,.209.134,18.54536,18.54536,0,0,1-11.17389,4.40717A.96791.96791,0,0,0,46,46.3125V45a1,1,0,0,0-2,0v1.3125a.96791.96791,0,0,0,.05377.26624,18.54536,18.54536,0,0,1-11.17389-4.40717.9675.9675,0,0,0,.209-.134l.96924-.92774a.99979.99979,0,1,0-1.38282-1.44433l-.96924.92773a.98382.98382,0,0,0-.193.27728A16.88565,16.88565,0,0,1,26.85626,30.18762Z" /><path d="M44.087,34.10034A.991.991,0,0,0,44,34.502v1.312a1,1,0,1,0,2,0V34.502a.991.991,0,0,0-.087-.40161A4.90045,4.90045,0,0,0,46,24.41351V17.44189a1,1,0,0,0-2,0v6.97162a4.90045,4.90045,0,0,0,.087,9.68683ZM45,26.31592a2.94174,2.94174,0,1,1-3.11279,2.93652A3.032,3.032,0,0,1,45,26.31592Z" /><path d="M2.5,52.56152H7.98389A1.68789,1.68789,0,0,1,9.72559,54.186v9.186a1,1,0,0,0,1,1H32.66113a3.68894,3.68894,0,0,0,3.74219-3.62451.346.346,0,0,1,.37109-.3125h2.7417a1.00005,1.00005,0,0,0,1-1v-3.937a.98867.98867,0,0,0-.329-.73145,27.82308,27.82308,0,0,0,9.62586,0,.98867.98867,0,0,0-.329.73145v2.937H47.7417a1,1,0,0,0,0,2h5.48389a.346.346,0,0,1,.37109.3125,3.68894,3.68894,0,0,0,3.74219,3.62451H79.27441a1,1,0,0,0,1-1V54.186a1.68789,1.68789,0,0,1,1.7417-1.62452H87.5a1,1,0,0,0,0-2H82.01611a3.68882,3.68882,0,0,0-3.7417,3.62452v8.186H57.33887a1.68833,1.68833,0,0,1-1.74219-1.62451,2.345,2.345,0,0,0-2.37109-2.3125h-1.7417v-2.937a.99507.99507,0,0,0-.64283-.92786c12.11506-2.56793,21.20728-12.941,21.20728-25.31775,0-14.2998-12.13379-25.9331-27.04834-25.9331s-27.04834,11.6333-27.04834,25.9331c0,12.37671,9.09222,22.74982,21.20728,25.31775a.99507.99507,0,0,0-.64283.92786v2.937h-1.7417a2.345,2.345,0,0,0-2.37109,2.3125,1.68833,1.68833,0,0,1-1.74219,1.62451H11.72559V54.186a3.68882,3.68882,0,0,0-3.7417-3.62452H2.5a1,1,0,0,0,0,2ZM19.95166,29.25244c0-13.19678,11.23682-23.9331,25.04834-23.9331s25.04834,10.73632,25.04834,23.9331C70.04834,42.44971,58.81152,53.186,45,53.186S19.95166,42.44971,19.95166,29.25244Z" /><path d="M13.46777,78.11963a1.00005,1.00005,0,0,0-1,1v3.93652a1,1,0,0,0,2,0V79.11963A1,1,0,0,0,13.46777,78.11963Z" /><path d="M13.46777,59.12305a1.00005,1.00005,0,0,0,1-1V54.186a1,1,0,1,0-2,0v3.937A1.00006,1.00006,0,0,0,13.46777,59.12305Z" /><path d="M87.5,84.68066H82.01611a1.68788,1.68788,0,0,1-1.7417-1.62451V71.24561a1,1,0,0,0-2,0v1.62451H11.72559V71.24561a1,1,0,0,0-2,0V83.05615a1.68788,1.68788,0,0,1-1.7417,1.62451H2.5a1,1,0,0,0,0,2H7.98389a3.68881,3.68881,0,0,0,3.7417-3.62451v-8.186H78.27441v8.186a3.68881,3.68881,0,0,0,3.7417,3.62451H87.5a1,1,0,0,0,0-2Z" /><path d="M76.53223,78.11963a1,1,0,0,0-1,1v3.93652a1,1,0,0,0,2,0V79.11963A1.00005,1.00005,0,0,0,76.53223,78.11963Z" /><path d="M76.53223,59.12305a1.00006,1.00006,0,0,0,1-1V54.186a1,1,0,1,0-2,0v3.937A1.00005,1.00005,0,0,0,76.53223,59.12305Z" /></svg>