<svg id="Layer_1" data-name="Layer 1" xmlns="http://www.w3.org/2000/svg" viewBox="0 0 90 90"><path d="M63.51318,47.70312a5.41462,5.41462,0,0,0-3.98535-1.54736l-2.98047.09717.16016-4.90772a.99973.99973,0,0,0-.29248-.73974L53.5249,37.71582a.99964.99964,0,0,0-1.41406,0L48.3623,41.46436,21.3175,14.41956A7.87613,7.87613,0,0,0,17.7627,6.665L9.89209,1.65625A1.00017,1.00017,0,0,0,8.648,1.793L1.793,8.648a1.00032,1.00032,0,0,0-.13672,1.24414L6.665,17.76318a7.76806,7.76806,0,0,0,7.75043,3.55024L41.46436,48.3623l-3.74854,3.74854a.99964.99964,0,0,0,0,1.41406L40.60547,56.415a.97869.97869,0,0,0,.73974.29248l4.90772-.16016-.09717,2.981a5.39718,5.39718,0,0,0,1.54785,3.98486l23.436,23.436a5.33318,5.33318,0,0,0,3.7998,1.54785,5.94116,5.94116,0,0,0,4.19385-1.76221l7.60156-7.60156a5.66473,5.66473,0,0,0,.21436-7.99316ZM16.602,20.67181c.01111-.00518.02264-.00836.03375-.01361a1,1,0,1,0-.85156-1.80957,5.86945,5.86945,0,0,1-7.43164-2.15918L3.77441,9.49463,9.49463,3.77441,16.689,8.35254a5.86743,5.86743,0,0,1,2.15967,7.43164,1,1,0,1,0,1.80957.85156l.01392-.03345L46.94824,42.87842l-4.06982,4.06982ZM85.3208,77.71924,77.71924,85.3208a3.6663,3.6663,0,0,1-5.16553.21436l-23.43555-23.436a3.34364,3.34364,0,0,1-.96337-2.50586l.13183-4.04736a.99974.99974,0,0,0-.29248-.73975.97225.97225,0,0,0-.73975-.29248l-5.541.18067-1.87647-1.87647,12.981-12.981,1.87647,1.87647-.18067,5.541a1.00038,1.00038,0,0,0,1.03223,1.03223l4.04687-.13183a3.31567,3.31567,0,0,1,2.50635.96289l23.436,23.43652A3.66618,3.66618,0,0,1,85.3208,77.71924Z" /><path d="M58.0459,56.63184a.99989.99989,0,0,0-1.41406,1.41406L75.8252,77.23926a.99989.99989,0,0,0,1.41406-1.41406Z" /><path d="M47.7417,32.29053a.99676.99676,0,0,0,.707-.293l8.881-8.881c.03821.10412.06586.21112.10627.31463a1.00014,1.00014,0,1,0,1.86328-.72754A14.081,14.081,0,0,1,76.31006,4.04932l-7.33985,7.34033a1.00011,1.00011,0,0,0-.293.707v3.87793a1.00011,1.00011,0,0,0,.293.707l4.34815,4.34815a1.00011,1.00011,0,0,0,.707.293h3.87793a1.00011,1.00011,0,0,0,.707-.293l7.34033-7.33985A14.08746,14.08746,0,0,1,67.29785,30.70117a.99987.99987,0,1,0-.72851,1.86231c.10345.04046.21045.06811.31457.10632L62.11572,37.438a.99989.99989,0,1,0,1.41407,1.41406l5.55072-5.55072A16.06827,16.06827,0,0,0,87.29346,11.47754a.99962.99962,0,0,0-1.63184-.32715l-8.17236,8.17236H74.43945l-3.7622-3.7622V12.51074l8.17236-8.17236a.99962.99962,0,0,0-.32715-1.63184,16.05121,16.05121,0,0,0-21.82385,18.213L47.03467,30.5835a1,1,0,0,0,.707,1.707Z" /><path d="M37.438,62.11572l-4.76813,4.76813c-.03821-.10413-.06592-.21106-.10638-.31451a.99987.99987,0,0,0-1.86231.72851A14.08092,14.08092,0,0,1,13.68994,85.95068l7.33985-7.34033a1.00011,1.00011,0,0,0,.293-.707V74.02539a1.00011,1.00011,0,0,0-.293-.707l-4.34815-4.34815a1.00011,1.00011,0,0,0-.707-.293H12.09668a1.00011,1.00011,0,0,0-.707.293L4.04932,76.31006A14.08759,14.08759,0,0,1,22.70361,59.29932a1.00014,1.00014,0,1,0,.72754-1.86328c-.10351-.04041-.21051-.06806-.31463-.10627l8.881-8.881a.99989.99989,0,1,0-1.41406-1.41406l-9.66394,9.66394a16.06832,16.06832,0,0,0-18.213,21.82385.99962.99962,0,0,0,1.63184.32715l8.17236-8.17236h3.04981l3.7622,3.7622v3.04981l-8.17236,8.17236a.99962.99962,0,0,0,.32715,1.63184A16.051,16.051,0,0,0,33.30133,69.08051l5.55072-5.55072A.99989.99989,0,1,0,37.438,62.11572Z" /></svg>