<svg id="Layer_1" data-name="Layer 1" xmlns="http://www.w3.org/2000/svg" viewBox="0 0 90 90"><path d="M85.67676,28.1543,79.217,13.08118l-.0022-.00507L77.45117,8.96094a.99978.99978,0,0,0-1.83789,0l-1.76373,4.11541-.00195.00458L67.3877,28.1543a.995.995,0,0,0-.08106.394V82.76855A5.73816,5.73816,0,0,0,73.03809,88.5h6.98828a5.73816,5.73816,0,0,0,5.73144-5.73145V28.54834A.99517.99517,0,0,0,85.67676,28.1543ZM83.75781,75.53223H77.53223V32.29053h6.22558ZM76.77832,12.46777h-.49219l.2461-.57422ZM80.02637,86.5H73.03809a3.73556,3.73556,0,0,1-3.73145-3.73145V28.75342L75.429,14.46777h2.20642l6.12237,14.28565v1.53711H76.53223a.99973.99973,0,0,0-1,1v45.2417a.99974.99974,0,0,0,1,1h7.22558v5.23632A3.73556,3.73556,0,0,1,80.02637,86.5Z" /><path d="M5.24219,77.53223a.99974.99974,0,0,0,1-1V61.08057h4.4834a1,1,0,1,0,0-2H6.24219V44.62891h4.4834a1,1,0,1,0,0-2H6.24219V28.17725h4.4834a1,1,0,0,0,0-2H6.24219V3.5H26.17773V50.48389a1,1,0,0,0,2,0V2.5a.99973.99973,0,0,0-1-1H5.24219a.99973.99973,0,0,0-1,1V76.53223A.99974.99974,0,0,0,5.24219,77.53223Z" /><path d="M13.83887,13.46777A2.37109,2.37109,0,1,0,16.21,11.09668,2.37353,2.37353,0,0,0,13.83887,13.46777Zm2.74218,0a.37109.37109,0,1,1-.37109-.37109A.37124.37124,0,0,1,16.58105,13.46777Z" /><path d="M60.08105,86.5H7.416L46.34961,41.07764l12.95508,15.977a.99975.99975,0,1,0,1.55273-1.25977l-13.71-16.90869a.99787.99787,0,0,0-.76269-.37012.96724.96724,0,0,0-.77247.34912L4.4834,86.84912A.99991.99991,0,0,0,5.24219,88.5H60.08105a1,1,0,1,0,0-2Z" /><path d="M45.63086,59.40771l-13.71,15.08057a1.0005,1.0005,0,0,0,.74023,1.67285H60.08105a1.0005,1.0005,0,0,0,.74024-1.67285l-13.71-15.08057A1.03241,1.03241,0,0,0,45.63086,59.40771Zm-10.709,14.75342L46.37109,61.56738,57.82031,74.16113Z" /></svg>