<?xml version="1.0" standalone="no"?>
<!DOCTYPE svg PUBLIC "-//W3C//DTD SVG 20010904//EN"
 "http://www.w3.org/TR/2001/REC-SVG-20010904/DTD/svg10.dtd">
<svg version="1.0" xmlns="http://www.w3.org/2000/svg"
 width="960.000000pt" height="960.000000pt" viewBox="0 0 960.000000 960.000000"
 preserveAspectRatio="xMidYMid meet">
<metadata>
Created by potrace 1.14, written by Peter Selinger 2001-2017
</metadata>
<g transform="translate(0.000000,960.000000) scale(0.100000,-0.100000)"
fill="#000000" stroke="none">
<path d="M2 8728 l3 -63 45 -2 c72 -2 140 -12 210 -29 149 -37 211 -75 305
-189 17 -20 36 -42 43 -50 6 -7 12 -16 12 -18 0 -3 22 -38 49 -79 49 -73 84
-133 119 -198 10 -19 33 -62 51 -95 18 -33 50 -91 71 -130 21 -38 82 -151 135
-250 54 -99 118 -218 143 -265 25 -47 61 -112 79 -145 19 -33 46 -85 61 -115
15 -30 29 -57 32 -60 6 -5 66 -118 85 -157 5 -13 13 -23 18 -23 4 0 7 -9 7
-20 0 -11 5 -20 10 -20 6 0 10 -6 10 -13 0 -7 13 -34 30 -60 16 -26 27 -47 24
-47 -3 0 3 -12 13 -27 11 -16 34 -57 53 -93 18 -36 37 -66 42 -68 4 -2 8 -11
8 -21 0 -9 4 -21 9 -26 9 -10 98 -171 129 -235 9 -19 19 -37 22 -40 3 -3 15
-25 28 -50 46 -89 126 -236 154 -283 15 -26 28 -50 28 -53 0 -3 30 -60 68
-127 37 -67 78 -144 92 -172 14 -27 27 -52 30 -55 3 -3 16 -27 30 -55 14 -27
28 -51 33 -53 4 -2 7 -12 7 -23 0 -10 4 -19 9 -19 5 0 14 -15 21 -32 8 -18 20
-41 28 -50 8 -10 11 -18 7 -18 -4 0 -1 -8 7 -17 8 -10 25 -38 37 -63 28 -54
208 -389 221 -410 5 -8 22 -40 38 -70 15 -30 42 -80 59 -110 17 -30 48 -86 68
-125 76 -141 98 -180 106 -190 5 -5 9 -17 9 -27 0 -10 4 -18 8 -18 4 0 29 -43
56 -95 26 -52 52 -97 57 -101 5 -3 7 -10 4 -15 -4 -5 -1 -9 4 -9 6 0 11 -4 11
-10 0 -5 23 -52 52 -102 28 -51 65 -120 83 -153 56 -105 138 -259 165 -307 14
-25 40 -75 59 -110 19 -34 56 -102 82 -151 27 -48 49 -92 49 -97 0 -6 5 -10
12 -10 6 0 8 -3 5 -7 -4 -3 -3 -11 2 -17 6 -6 23 -36 39 -66 33 -62 83 -155
189 -349 40 -74 79 -147 85 -163 7 -15 16 -28 20 -28 5 0 8 -9 8 -20 0 -11 5
-20 10 -20 6 0 10 -5 10 -11 0 -6 9 -24 21 -40 11 -16 17 -29 13 -29 -3 0 -1
-6 5 -14 11 -13 41 -67 83 -151 11 -22 29 -53 40 -68 11 -15 21 -33 22 -40 1
-7 14 -32 28 -57 28 -47 80 -145 146 -270 22 -41 51 -95 65 -120 14 -25 36
-65 49 -90 13 -25 44 -81 67 -125 210 -385 266 -490 264 -497 -3 -9 25 -19 31
-10 2 4 15 27 28 52 14 25 35 63 48 85 56 99 175 313 189 340 8 17 17 32 20
35 3 3 15 23 27 45 35 67 86 159 94 170 4 6 20 33 35 60 38 69 116 208 141
253 12 20 34 60 49 87 15 28 35 64 45 80 24 40 66 116 108 195 19 36 42 76 51
90 9 14 30 50 45 80 16 30 33 60 38 67 6 7 26 43 45 80 20 37 44 80 55 96 11
15 16 27 12 27 -4 0 0 8 8 18 9 9 28 41 43 70 15 29 31 55 36 58 5 3 7 10 4
15 -4 5 -2 9 3 9 6 0 15 12 21 28 11 28 35 71 64 116 10 14 14 26 10 26 -5 0
-3 4 3 8 6 4 27 36 46 72 35 65 163 294 284 507 35 62 64 117 64 123 0 5 3 10
8 10 4 0 15 17 25 38 9 20 28 55 41 77 14 22 33 56 42 75 10 19 24 43 32 53 8
9 11 17 6 17 -5 0 -4 4 2 8 6 4 26 34 43 67 18 33 40 74 50 90 10 17 35 62 56
100 21 39 75 135 120 215 145 255 155 274 173 310 9 19 19 37 22 40 4 4 141
247 194 345 6 11 13 22 16 25 3 3 14 23 25 45 11 22 22 42 25 45 6 6 11 15 70
125 23 44 46 85 50 90 4 6 22 37 40 70 18 33 43 78 56 100 12 22 37 67 55 100
17 33 43 77 55 97 13 21 24 42 24 47 0 5 3 11 8 13 4 2 16 21 28 43 11 22 52
96 91 165 38 69 83 148 98 175 15 28 40 73 54 100 14 28 28 52 32 55 10 9 119
210 119 220 0 6 3 10 8 10 4 0 15 17 25 38 21 46 39 75 52 84 6 4 7 8 3 8 -4
0 6 24 23 53 17 28 34 59 39 67 5 8 38 67 73 130 35 63 74 133 87 155 13 22
34 60 48 85 14 25 34 61 45 80 11 19 39 69 62 110 23 41 54 98 70 125 29 51
158 282 179 319 6 12 16 24 21 28 6 4 7 8 2 8 -4 0 1 12 10 27 17 26 48 81 75
133 7 14 32 58 55 98 24 40 43 74 43 77 0 2 27 45 61 96 68 103 127 166 164
175 14 3 25 11 25 17 0 6 3 8 6 4 3 -3 18 -1 33 5 25 9 35 12 80 22 21 5 86
17 116 21 78 11 133 18 153 18 20 1 22 5 22 64 l0 63 -1377 -2 -1377 -3 1 -50
c0 -27 1 -55 2 -60 0 -6 24 -12 52 -13 28 -1 65 -5 83 -8 17 -3 40 -7 51 -9
46 -8 92 -23 125 -40 41 -21 109 -90 112 -113 8 -89 -8 -195 -41 -267 -46
-100 -117 -242 -147 -295 -20 -36 -47 -85 -61 -110 -13 -25 -34 -61 -45 -80
-11 -19 -48 -84 -81 -145 -34 -60 -66 -113 -72 -117 -5 -4 -7 -8 -2 -8 4 0 -3
-17 -16 -37 -13 -21 -38 -65 -56 -98 -83 -152 -146 -261 -156 -267 -5 -4 -7
-8 -2 -8 4 0 -4 -18 -18 -40 -14 -22 -25 -42 -25 -45 0 -3 -17 -33 -37 -68
-21 -34 -45 -76 -53 -92 -8 -17 -27 -49 -42 -71 -15 -23 -25 -44 -22 -46 2 -3
-2 -11 -11 -18 -8 -7 -15 -16 -15 -21 0 -5 -25 -52 -55 -104 -30 -53 -55 -100
-55 -105 0 -6 -4 -10 -10 -10 -5 0 -9 -3 -8 -7 3 -8 -42 -89 -73 -135 -11 -15
-19 -30 -19 -34 0 -4 -31 -61 -69 -128 -38 -66 -81 -143 -96 -171 -16 -27 -41
-72 -57 -100 -16 -27 -34 -62 -41 -77 -6 -16 -15 -28 -19 -28 -4 0 -8 -4 -8
-10 0 -10 -109 -211 -119 -220 -4 -3 -14 -21 -23 -40 -10 -19 -32 -60 -49 -90
-18 -30 -50 -89 -72 -130 -22 -41 -46 -82 -53 -91 -8 -8 -14 -20 -14 -26 0 -6
-7 -16 -15 -23 -8 -7 -13 -16 -10 -20 3 -5 0 -14 -7 -22 -11 -11 -23 -31 -72
-123 -6 -11 -15 -23 -21 -27 -7 -5 -7 -8 0 -8 7 0 7 -3 0 -8 -5 -4 -18 -23
-29 -42 -10 -19 -71 -129 -136 -245 -131 -234 -158 -284 -196 -352 -15 -27
-44 -79 -65 -116 -22 -38 -39 -73 -39 -77 0 -5 -3 -10 -8 -12 -4 -1 -18 -25
-32 -53 -39 -77 -43 -79 -70 -26 -14 25 -39 71 -56 101 -17 30 -53 96 -79 145
-27 50 -68 126 -92 170 -24 44 -51 94 -59 110 -8 17 -25 48 -37 70 -13 22 -47
85 -76 140 -30 55 -78 144 -107 197 -30 53 -54 101 -54 106 0 6 -3 12 -7 14
-7 3 -33 49 -102 183 -14 27 -32 56 -39 63 -7 8 -10 18 -7 23 4 5 2 9 -3 9 -5
0 -12 8 -15 18 -6 18 -78 152 -103 189 -8 12 -14 29 -14 37 0 8 -4 16 -8 18
-5 2 -32 48 -62 103 -51 98 -88 164 -138 255 -13 25 -43 79 -65 120 -22 41
-55 102 -73 135 -18 33 -42 78 -53 100 -11 22 -41 76 -66 120 -25 44 -48 87
-52 95 -4 8 -31 60 -61 115 -30 55 -101 186 -157 290 -158 292 -219 405 -252
465 -17 30 -48 89 -69 130 -21 41 -41 77 -44 80 -3 3 -17 28 -31 55 -14 28
-42 80 -62 118 -20 37 -54 97 -74 135 -59 108 -63 116 -63 129 0 6 -3 13 -7
15 -13 5 -92 187 -97 223 -1 5 -5 15 -9 22 -4 7 -9 43 -11 82 -9 182 111 261
438 286 17 2 33 3 36 4 3 0 5 28 6 61 l0 60 -1503 0 -1504 0 3 -62z"/>
</g>
</svg>
